<svg width="16" height="16" viewBox="0 0 16 16" fill="none" xmlns="http://www.w3.org/2000/svg">
<path d="M7.9987 6.66667C9.34654 6.66669 10.4392 7.86059 10.4392 9.33333C10.4392 10.8061 9.34654 12 7.9987 12C6.65085 12 5.55819 10.8061 5.55819 9.33333C5.55819 7.86057 6.65085 6.66667 7.9987 6.66667Z" fill="#E0E0E0"/>
<path d="M7.9987 4C8.87994 4 9.75253 4.17397 10.5667 4.51172C11.381 4.84954 12.1213 5.34454 12.7445 5.96875C13.3677 6.59297 13.8622 7.33416 14.1995 8.14974C14.4314 8.71071 14.5856 9.2996 14.6594 9.89974C14.715 10.3512 14.3721 10.7219 13.9552 10.722C13.5381 10.722 13.2063 10.35 13.1347 9.90104C13.0707 9.49957 12.9601 9.10587 12.804 8.72852C12.5427 8.09653 12.1596 7.52213 11.6767 7.03841C11.1938 6.55474 10.6203 6.17131 9.98935 5.90951C9.35833 5.6477 8.68172 5.51303 7.9987 5.51302C7.31567 5.51302 6.63908 5.6477 6.00804 5.90951C5.37711 6.17131 4.80357 6.55472 4.32066 7.03841C3.83774 7.52213 3.45473 8.09652 3.19336 8.72852C3.03731 9.10587 2.92666 9.49957 2.86268 9.90104C2.79115 10.35 2.45925 10.722 2.04222 10.722C1.62528 10.7219 1.2824 10.3513 1.33796 9.89974C1.41184 9.29959 1.56595 8.71072 1.79793 8.14974C2.13521 7.33416 2.62973 6.59297 3.25294 5.96875C3.87609 5.34461 4.61593 4.84953 5.43009 4.51172C6.24435 4.1739 7.11735 4 7.9987 4Z" fill="#E0E0E0"/>
</svg>

