<svg width="28" height="28" viewBox="0 0 28 28" fill="none" xmlns="http://www.w3.org/2000/svg">
<path d="M25.3752 24.1379L18.7671 17.5298C20.355 15.6235 21.1468 13.1784 20.9778 10.7031C20.8089 8.22789 19.6921 5.91309 17.8599 4.24026C16.0277 2.56743 13.6211 1.66537 11.1407 1.72173C8.66035 1.77809 6.29721 2.78854 4.54287 4.54287C2.78854 6.29721 1.77809 8.66035 1.72173 11.1407C1.66537 13.6211 2.56743 16.0277 4.24026 17.8599C5.91309 19.6921 8.22789 20.8089 10.7031 20.9778C13.1784 21.1468 15.6235 20.355 17.5298 18.7671L24.1379 25.3752L25.3752 24.1379ZM3.50021 11.3752C3.50021 9.81768 3.96207 8.29513 4.82738 7.00009C5.6927 5.70505 6.92261 4.6957 8.36157 4.09966C9.80054 3.50362 11.3839 3.34766 12.9115 3.65152C14.4391 3.95538 15.8423 4.7054 16.9437 5.80674C18.045 6.90808 18.795 8.31127 19.0989 9.83887C19.4027 11.3665 19.2468 12.9499 18.6508 14.3888C18.0547 15.8278 17.0454 17.0577 15.7503 17.923C14.4553 18.7883 12.9327 19.2502 11.3752 19.2502C9.28734 19.2479 7.28565 18.4175 5.8093 16.9411C4.33295 15.4648 3.50252 13.4631 3.50021 11.3752Z" fill="#424242"/>
</svg>
