<svg width="28" height="28" viewBox="0 0 28 28" fill="none" xmlns="http://www.w3.org/2000/svg">
<path d="M26.25 13.125H20.9388C20.7425 11.5853 20.0405 10.1544 18.943 9.05676C17.8456 7.95916 16.4147 7.25706 14.875 7.06064V1.75H13.125V7.06064C11.5853 7.25706 10.1544 7.95916 9.05696 9.05676C7.95948 10.1544 7.25751 11.5853 7.06125 13.125H1.75V14.875H7.06125C7.25751 16.4147 7.95948 17.8456 9.05696 18.9432C10.1544 20.0408 11.5853 20.7429 13.125 20.9394V26.25H14.875V20.9394C16.4148 20.743 17.8457 20.041 18.9433 18.9434C20.0409 17.8458 20.7429 16.4148 20.9392 14.875H26.25V13.125ZM14 19.25C12.9616 19.25 11.9466 18.9421 11.0833 18.3652C10.2199 17.7883 9.54699 16.9684 9.14963 16.0091C8.75227 15.0498 8.64831 13.9942 8.85088 12.9758C9.05345 11.9574 9.55346 11.0219 10.2877 10.2877C11.0219 9.55346 11.9574 9.05345 12.9758 8.85088C13.9942 8.64831 15.0498 8.75227 16.0091 9.14963C16.9684 9.54699 17.7883 10.2199 18.3652 11.0833C18.9421 11.9466 19.25 12.9616 19.25 14C19.2485 15.3919 18.6949 16.7264 17.7106 17.7106C16.7264 18.6949 15.3919 19.2485 14 19.25Z" fill="#2DA969"/>
</svg>
